<svg id="logo-vibes" data-name="logo" xmlns="http://www.w3.org/2000/svg" viewBox="0 0 68.82 24"><defs><style>.cls-1{fill:#2864f0;stroke-width:0}</style></defs><g id="Design"><path class="cls-1" d="M11.66 8.1h3.35L8.11 24H7.06L0 8.1h3.38l4.22 9.61 4.06-9.61ZM18.92 1.53c.51 0 .95.18 1.31.53.36.35.54.78.54 1.29s-.18.93-.54 1.29c-.36.36-.8.54-1.31.54-.48 0-.89-.18-1.26-.55-.36-.37-.54-.8-.54-1.28s.18-.9.54-1.27c.36-.37.78-.55 1.26-.55ZM17.39 8.1h3.09v15.63h-3.09V8.1ZM24.82 0h3.09v9.22c1.34-.97 2.76-1.46 4.28-1.46 1.98 0 3.6.75 4.86 2.24 1.26 1.49 1.89 3.41 1.89 5.76 0 2.51-.75 4.52-2.25 6-1.5 1.49-3.51 2.23-6.02 2.23-1.01 0-2.07-.11-3.18-.32s-2-.49-2.66-.82V0Zm3.09 12.18v8.46c1.05.32 2.13.48 3.24.48 1.37 0 2.49-.49 3.35-1.46.87-.97 1.3-2.23 1.3-3.75s-.4-2.81-1.21-3.79c-.81-.97-1.87-1.46-3.17-1.46-1.15 0-2.33.51-3.52 1.53ZM55.66 16.19H44.67c.08 1.49.58 2.68 1.5 3.57s2.11 1.32 3.58 1.32c2.04 0 3.92-.63 5.64-1.9v3.02c-.95.63-1.89 1.09-2.83 1.36s-2.03.41-3.29.41c-1.72 0-3.11-.36-4.18-1.07s-1.92-1.67-2.56-2.88-.96-2.6-.96-4.19c0-2.38.67-4.31 2.02-5.8 1.35-1.49 3.1-2.23 5.25-2.23s3.73.72 4.96 2.17 1.85 3.39 1.85 5.83v.39Zm-10.92-1.85h7.86c-.08-1.23-.45-2.19-1.1-2.85-.66-.67-1.54-1-2.65-1s-2.02.33-2.73 1c-.71.67-1.17 1.62-1.38 2.85ZM58.24 22.61v-3.33c.87.61 1.76 1.11 2.68 1.49.91.38 1.68.57 2.3.57s1.2-.16 1.66-.48c.46-.32.7-.7.7-1.14s-.15-.83-.45-1.13c-.3-.3-.95-.73-1.94-1.3-1.99-1.11-3.3-2.06-3.92-2.85-.62-.79-.93-1.64-.93-2.57 0-1.2.47-2.18 1.4-2.94.93-.76 2.14-1.14 3.61-1.14s3.1.43 4.7 1.29v3.06c-1.83-1.11-3.33-1.66-4.5-1.66-.6 0-1.08.13-1.45.38s-.55.59-.55 1.01c0 .36.17.71.5 1.04.33.33.92.72 1.76 1.19l1.1.63c2.6 1.47 3.91 3.1 3.91 4.89 0 1.28-.5 2.33-1.5 3.15-1 .82-2.29 1.23-3.86 1.23-.93 0-1.76-.1-2.48-.3s-1.64-.56-2.73-1.1Z"/></g></svg>